<?xml version="1.0" encoding="utf-8"?>
<svg version="1.1" xmlns="http://www.w3.org/2000/svg" xmlns:xlink="http://www.w3.org/1999/xlink" style="enable-background:new -440 241 75 75;" xml:space="preserve">
<g id="logo">
	<path id="Combined-Shape" class="logo__controller" d="M-377.4,289.4c3-4.6,2.2-8.3,2.2-8.3s1.3,0.2,0.1-2.4c-1.2-2.6-5.1-7.4-5.1-7.4
		s0.6-1.2,0.5-1.9c-0.1-0.7-2.2-5.2-5.4-8.4c-3.2-3.2-7.6-5.3-8.4-5.4c-0.7-0.1-1.9,0.5-1.9,0.5s-4.8-3.9-7.4-5.1
		c-2.6-1.2-2.4,0.1-2.4,0.1s-2.9-0.9-8.3,2.2c-6.8,3.9-14.4,13.1-16.4,17.1c-2,4,2,4.7,4.3,4c2.2-0.7,11.2-6.4,11.2-6.4s0,0,2.4,3.1
		c2.4,3.1,0.7,4.7,0.7,4.7s-7.8,11.5-10.5,16.3c-2.6,4.8,0.6,8.1,5.4,5.4c4.8-2.6,16.3-10.5,16.3-10.5s1.6-1.8,4.7,0.7l3.1,2.4
		c0,0-5.6,9-6.4,11.2c-0.7,2.2,0,6.2,4,4.3C-390.5,303.8-381.7,296-377.4,289.4L-377.4,289.4z M-411.8,264.3c-2.3-2.3-2.3-6,0-8.2
		c2.3-2.3,6-2.3,8.2,0c2.3,2.3,2.3,6,0,8.2C-405.9,266.5-409.6,266.5-411.8,264.3L-411.8,264.3z M-395.2,271.3
		c0.9,0.9,0.8,2.4-0.1,3.3c-0.9,0.9-2.4,0.8-3.3-0.1c-0.9-0.9-0.8-2.4,0.1-3.3C-397.5,270.3-396.1,270.4-395.2,271.3L-395.2,271.3z
		 M-409.1,285.1c-2.4-2.4-2.4-6.4,0-8.8s6.4-2.4,8.8,0c2.4,2.4,2.4,6.4,0,8.8C-402.7,287.5-406.7,287.5-409.1,285.1L-409.1,285.1z
		 M-378.4,280.1c0.6,0.6,0.6,1.7,0,2.3c-0.6,0.6-1.7,0.6-2.3,0s-0.6-1.7,0-2.3S-379.1,279.5-378.4,280.1L-378.4,280.1z
		 M-382.6,280.1c0.6,0.6,0.6,1.7,0,2.3s-1.7,0.6-2.3,0c-0.6-0.6-0.6-1.7,0-2.3C-384.2,279.5-383.2,279.5-382.6,280.1L-382.6,280.1z
		 M-390.8,281.7c-0.9-0.9-0.9-2.4,0-3.3c0.9-0.9,2.4-0.9,3.3,0c0.9,0.9,0.9,2.4,0,3.3S-389.9,282.6-390.8,281.7L-390.8,281.7z
		 M-390.9,287.3c-0.9-0.9-0.9-2.4,0-3.3c0.9-0.9,2.4-0.9,3.3,0c0.9,0.9,0.9,2.4,0,3.3C-388.6,288.2-390,288.2-390.9,287.3
		L-390.9,287.3z M-384.9,286.6c-0.6-0.6-0.6-1.7,0-2.3c0.6-0.6,1.7-0.6,2.3,0s0.6,1.7,0,2.3C-383.2,287.2-384.2,287.2-384.9,286.6
		L-384.9,286.6z M-380.7,286.6c-0.6-0.6-0.6-1.7,0-2.3s1.7-0.6,2.3,0s0.6,1.7,0,2.3C-379.1,287.2-380.1,287.2-380.7,286.6z
		 M-404.4,262.5c0.2-0.2,0.2-0.6,0-0.8l-1.2-1.2c-0.2-0.2-0.2-0.6,0-0.8l1.2-1.2c0.2-0.2,0.2-0.6,0-0.8l-1-1c-0.2-0.2-0.6-0.2-0.8,0
		l-1.2,1.2c-0.2,0.2-0.6,0.2-0.8,0l-1.2-1.2c-0.2-0.2-0.6-0.2-0.8,0l-1,1c-0.2,0.2-0.2,0.6,0,0.8l1.2,1.2c0.2,0.2,0.2,0.6,0,0.8
		l-1.1,1.1c-0.2,0.2-0.2,0.6,0,0.8l1,1c0.2,0.2,0.6,0.2,0.8,0l1.1-1.1c0.2-0.2,0.6-0.2,0.8,0l1.2,1.2c0.2,0.2,0.6,0.2,0.8,0
		L-404.4,262.5z M-400.3,280.9l-1.1-3.1l-3-1.4l-3.1,1.1l-1.4,3l1.1,3.1l3,1.4l3.1-1.1L-400.3,280.9z"/>
</g>
</svg>
